<svg xmlns="http://www.w3.org/2000/svg" width="21" height="16" viewBox="0 0 21 16" fill="none">
  <g clip-path="url(#clip0_2_161)">
    <path d="M15.2762 3.36377H5.33274C4.51318 3.36366 3.70631 3.55353 2.98395 3.91649C2.2616 4.27944 1.64619 4.80421 1.1925 5.44408C0.738807 6.08395 0.460919 6.81906 0.383575 7.58397C0.306231 8.34887 0.431829 9.11984 0.749189 9.82824C1.24977 10.9456 2.59889 14.1146 4.39872 14.1147C6.38344 14.1148 8.04566 12.0854 8.88177 11.2857H11.725C12.5818 12.1053 14.5345 14.1147 16.2075 14.1148C17.6245 14.1147 19.3672 10.9222 19.8571 9.82918C20.1746 9.12093 20.3004 8.35008 20.2233 7.58523C20.1462 6.82039 19.8686 6.08529 19.4152 5.44535C18.9617 4.80542 18.3466 4.2805 17.6245 3.91733C16.9023 3.55416 16.0957 3.364 15.2762 3.36377ZM8.06659 8.37324C8.06659 8.46593 8.02731 8.55483 7.9574 8.62037C7.88748 8.68592 7.79266 8.72274 7.69379 8.72274H6.07833V10.2372C6.07833 10.3299 6.03906 10.4188 5.96914 10.4844C5.89923 10.5499 5.80441 10.5867 5.70554 10.5867H4.95994C4.86107 10.5867 4.76624 10.5499 4.69633 10.4844C4.62642 10.4188 4.58714 10.3299 4.58714 10.2372V8.72274H2.97169C2.87281 8.72274 2.77799 8.68592 2.70808 8.62037C2.63816 8.55483 2.59889 8.46593 2.59889 8.37324V7.67424C2.59889 7.58155 2.63816 7.49266 2.70808 7.42711C2.77799 7.36157 2.87281 7.32475 2.97169 7.32475H4.58714V5.81026C4.58714 5.71756 4.62642 5.62867 4.69633 5.56312C4.76624 5.49758 4.86107 5.46076 4.95994 5.46076H5.70554C5.80441 5.46076 5.89923 5.49758 5.96914 5.56312C6.03906 5.62867 6.07833 5.71756 6.07833 5.81026V7.32475H7.69379C7.79266 7.32475 7.88748 7.36157 7.9574 7.42711C8.02731 7.49266 8.06659 7.58155 8.06659 7.67424V8.37324ZM14.7769 10.5867C14.5312 10.5867 14.2909 10.5184 14.0866 10.3904C13.8822 10.2624 13.7229 10.0804 13.6289 9.86756C13.5348 9.65468 13.5102 9.42044 13.5582 9.19446C13.6061 8.96847 13.7245 8.76089 13.8983 8.59796C14.072 8.43503 14.2935 8.32408 14.5345 8.27913C14.7756 8.23417 15.0254 8.25725 15.2525 8.34542C15.4796 8.4336 15.6736 8.58292 15.8102 8.7745C15.9467 8.96608 16.0196 9.19132 16.0196 9.42173C16.0196 9.73071 15.8887 10.027 15.6556 10.2455C15.4226 10.464 15.1065 10.5867 14.7769 10.5867ZM16.7652 7.79074C16.5194 7.79074 16.2792 7.72242 16.0748 7.59441C15.8705 7.4664 15.7112 7.28445 15.6171 7.07157C15.5231 6.8587 15.4985 6.62446 15.5464 6.39847C15.5944 6.17249 15.7127 5.9649 15.8865 5.80198C16.0603 5.63905 16.2817 5.52809 16.5228 5.48314C16.7638 5.43819 17.0137 5.46126 17.2407 5.54944C17.4678 5.63761 17.6619 5.78693 17.7984 5.97852C17.935 6.1701 18.0079 6.39534 18.0079 6.62575C18.0079 6.93473 17.8769 7.23105 17.6439 7.44953C17.4109 7.668 17.0948 7.79074 16.7652 7.79074Z" fill="white"/>
  </g>
  <defs>
    <clipPath id="clip0_2_161">
      <rect width="19.8825" height="14.9119" fill="white" transform="translate(0.362061 0.56781)"/>
    </clipPath>
  </defs>
</svg>