<svg xmlns="http://www.w3.org/2000/svg" width="157" height="152" viewBox="0 0 157 152" fill="none">
  <g opacity="0.03">
    <circle cx="35.644" cy="54.2739" r="5.19788" transform="rotate(-16.6337 35.644 54.2739)" fill="black"/>
    <circle cx="57.6511" cy="47.6992" r="5.19788" transform="rotate(-16.6337 57.6511 47.6992)" fill="black"/>
    <ellipse cx="80.0732" cy="41.0005" rx="5.63103" ry="5.19788" transform="rotate(-16.6337 80.0732 41.0005)" fill="black"/>
    <circle cx="102.495" cy="34.3019" r="5.19788" transform="rotate(-16.6337 102.495 34.3019)" fill="black"/>
    <circle cx="124.502" cy="27.7272" r="5.19788" transform="rotate(-16.6337 124.502 27.7272)" fill="black"/>
    <circle cx="41.942" cy="75.3549" r="5.19788" transform="rotate(-16.6337 41.942 75.3549)" fill="black"/>
    <circle cx="63.9491" cy="68.7802" r="5.19788" transform="rotate(-16.6337 63.9491 68.7802)" fill="black"/>
    <ellipse cx="86.3712" cy="62.0816" rx="5.63103" ry="5.19788" transform="rotate(-16.6337 86.3712 62.0816)" fill="black"/>
    <circle cx="108.793" cy="55.3829" r="5.19788" transform="rotate(-16.6337 108.793 55.3829)" fill="black"/>
    <circle cx="130.8" cy="48.8082" r="5.19788" transform="rotate(-16.6337 130.8 48.8082)" fill="black"/>
    <circle cx="48.24" cy="96.4359" r="5.19788" transform="rotate(-16.6337 48.24 96.4359)" fill="black"/>
    <circle cx="70.247" cy="89.8612" r="5.19788" transform="rotate(-16.6337 70.247 89.8612)" fill="black"/>
    <ellipse cx="92.6692" cy="83.1626" rx="5.63103" ry="5.19788" transform="rotate(-16.6337 92.6692 83.1626)" fill="black"/>
    <circle cx="115.091" cy="76.4639" r="5.19788" transform="rotate(-16.6337 115.091 76.4639)" fill="black"/>
    <circle cx="137.098" cy="69.8892" r="5.19788" transform="rotate(-16.6337 137.098 69.8892)" fill="black"/>
    <circle cx="54.538" cy="117.517" r="5.19788" transform="rotate(-16.6337 54.538 117.517)" fill="black"/>
    <circle cx="76.5451" cy="110.942" r="5.19788" transform="rotate(-16.6337 76.5451 110.942)" fill="black"/>
    <ellipse cx="98.9672" cy="104.244" rx="5.63103" ry="5.19788" transform="rotate(-16.6337 98.9672 104.244)" fill="black"/>
    <circle cx="121.389" cy="97.5449" r="5.19788" transform="rotate(-16.6337 121.389 97.5449)" fill="black"/>
    <circle cx="143.396" cy="90.9703" r="5.19788" transform="rotate(-16.6337 143.396 90.9703)" fill="black"/>
    <circle cx="60.836" cy="138.598" r="5.19788" transform="rotate(-16.6337 60.836 138.598)" fill="black"/>
    <circle cx="13.6369" cy="60.8485" r="5.19788" transform="rotate(-16.6337 13.6369 60.8485)" fill="black"/>
    <circle cx="29.346" cy="33.1929" r="5.19788" transform="rotate(-16.6337 29.346 33.1929)" fill="black"/>
    <circle cx="51.353" cy="26.6182" r="5.19788" transform="rotate(-16.6337 51.353 26.6182)" fill="black"/>
    <ellipse cx="73.7752" cy="19.9195" rx="5.63103" ry="5.19788" transform="rotate(-16.6337 73.7752 19.9195)" fill="black"/>
    <circle cx="96.1973" cy="13.2209" r="5.19788" transform="rotate(-16.6337 96.1973 13.2209)" fill="black"/>
    <circle cx="118.204" cy="6.64621" r="5.19788" transform="rotate(-16.6337 118.204 6.64621)" fill="black"/>
    <circle cx="7.33891" cy="39.7675" r="5.19788" transform="rotate(-16.6337 7.33891 39.7675)" fill="black"/>
    <circle cx="19.9349" cy="81.9295" r="5.19788" transform="rotate(-16.6337 19.9349 81.9295)" fill="black"/>
    <circle cx="26.2329" cy="103.011" r="5.19788" transform="rotate(-16.6337 26.2329 103.011)" fill="black"/>
    <circle cx="32.531" cy="124.092" r="5.19788" transform="rotate(-16.6337 32.531 124.092)" fill="black"/>
    <circle cx="38.829" cy="145.173" r="5.19788" transform="rotate(-16.6337 38.829 145.173)" fill="black"/>
    <circle cx="82.8431" cy="132.023" r="5.19788" transform="rotate(-16.6337 82.8431 132.023)" fill="black"/>
    <ellipse cx="105.265" cy="125.325" rx="5.63103" ry="5.19788" transform="rotate(-16.6337 105.265 125.325)" fill="black"/>
    <circle cx="127.687" cy="118.626" r="5.19788" transform="rotate(-16.6337 127.687 118.626)" fill="black"/>
    <circle cx="149.694" cy="112.051" r="5.19788" transform="rotate(-16.6337 149.694 112.051)" fill="black"/>
  </g>
</svg>