<svg xmlns="http://www.w3.org/2000/svg" width="29" height="29" viewBox="0 0 29 29" fill="none">
  <path d="M24.6601 8.4518C24.4597 8.10457 24.1727 7.81522 23.8272 7.61195C23.4816 7.40868 23.0893 7.29844 22.6884 7.29199H7.84278L7.17008 4.6708C7.10212 4.41778 6.95049 4.19521 6.73988 4.03937C6.52928 3.88352 6.27211 3.80357 6.01027 3.81254H3.69064C3.38304 3.81254 3.08803 3.93473 2.87052 4.15224C2.65302 4.36975 2.53082 4.66475 2.53082 4.97235C2.53082 5.27996 2.65302 5.57496 2.87052 5.79247C3.08803 6.00998 3.38304 6.13217 3.69064 6.13217H5.12881L8.3299 18.0319C8.39786 18.2849 8.5495 18.5075 8.7601 18.6633C8.97071 18.8192 9.22787 18.8991 9.48971 18.8901H19.9281C20.1422 18.8895 20.352 18.8295 20.5342 18.717C20.7164 18.6044 20.8639 18.4435 20.9603 18.2522L24.7645 10.6439C24.9294 10.2982 25.0061 9.91719 24.9879 9.5347C24.9697 9.15221 24.8571 8.78018 24.6601 8.4518Z" fill="white"/>
  <path d="M8.90977 24.6892C9.87059 24.6892 10.6495 23.9103 10.6495 22.9495C10.6495 21.9887 9.87059 21.2098 8.90977 21.2098C7.94894 21.2098 7.17004 21.9887 7.17004 22.9495C7.17004 23.9103 7.94894 24.6892 8.90977 24.6892Z" fill="white"/>
  <path d="M20.5079 24.6892C21.4687 24.6892 22.2476 23.9103 22.2476 22.9495C22.2476 21.9887 21.4687 21.2098 20.5079 21.2098C19.5471 21.2098 18.7682 21.9887 18.7682 22.9495C18.7682 23.9103 19.5471 24.6892 20.5079 24.6892Z" fill="white"/>
</svg>